<?xml version="1.0"?>
<svg width="24" height="20" xmlns="http://www.w3.org/2000/svg" xmlns:svg="http://www.w3.org/2000/svg">
 <g class="layer">
  <title>Layer 1</title>
  <path d="m23.78,2.3c-0.89,0.39 -1.83,0.65 -2.8,0.76c1.02,-0.61 1.78,-1.57 2.15,-2.7c-0.96,0.57 -2.01,0.97 -3.1,1.19c-0.74,-0.79 -1.71,-1.31 -2.77,-1.48c-1.06,-0.18 -2.15,0 -3.1,0.51c-0.95,0.5 -1.7,1.31 -2.14,2.29c-0.45,0.98 -0.55,2.08 -0.31,3.13c-1.94,-0.1 -3.84,-0.6 -5.57,-1.48c-1.73,-0.88 -3.26,-2.11 -4.48,-3.62c-0.44,0.74 -0.67,1.59 -0.66,2.45c0,1.69 0.86,3.19 2.17,4.06c-0.78,-0.02 -1.54,-0.23 -2.21,-0.61l0,0.06c0,1.13 0.39,2.22 1.1,3.09c0.71,0.88 1.71,1.48 2.81,1.7c-0.72,0.19 -1.47,0.22 -2.2,0.08c0.31,0.97 0.91,1.82 1.73,2.43c0.82,0.61 1.8,0.94 2.82,0.96c-1.01,0.8 -2.17,1.38 -3.41,1.73c-1.24,0.35 -2.53,0.45 -3.81,0.29c2.23,1.44 4.83,2.2 7.48,2.2c8.97,0 13.88,-7.44 13.88,-13.89c0,-0.21 0,-0.42 -0.01,-0.63c0.95,-0.69 1.78,-1.54 2.43,-2.52l0,0z" fill="#0a0909" id="svg_1"/>
 </g>
</svg>