<?xml version="1.0"?>
<svg width="24" height="15" xmlns="http://www.w3.org/2000/svg" xmlns:svg="http://www.w3.org/2000/svg">
 <g class="layer">
  <title>Layer 1</title>
  <path clip-rule="evenodd" d="m23.45,1.62c0.17,-0.55 0,-0.95 -0.79,-0.95l-2.63,0c-0.67,0 -0.98,0.34 -1.14,0.73c0,0 -1.34,3.19 -3.23,5.27c-0.61,0.6 -0.89,0.79 -1.22,0.79c-0.17,0 -0.42,-0.19 -0.42,-0.74l0,-5.1c0,-0.66 -0.18,-0.95 -0.74,-0.95l-4.13,0c-0.42,0 -0.67,0.3 -0.67,0.59c0,0.62 0.95,0.77 1.05,2.51l0,3.8c0,0.83 -0.16,0.99 -0.49,0.99c-0.89,0 -3.06,-3.22 -4.34,-6.89c-0.25,-0.71 -0.5,-1 -1.17,-1l-2.63,0c-0.75,0 -0.9,0.34 -0.9,0.73c0,0.68 0.89,4.07 4.14,8.55c2.18,3.06 5.23,4.72 8.01,4.72c1.67,0 1.88,-0.37 1.88,-1.01l0,-2.31c0,-0.74 0.16,-0.88 0.68,-0.88c0.4,0 1.06,0.19 2.62,1.66c1.78,1.75 2.07,2.54 3.08,2.54l2.62,0c0.75,0 1.13,-0.37 0.91,-1.1c-0.24,-0.72 -1.09,-1.77 -2.21,-3.02c-0.62,-0.71 -1.53,-1.48 -1.81,-1.86c-0.39,-0.49 -0.28,-0.71 0,-1.15c0,0 3.2,-4.42 3.53,-5.92l0,0z" fill="#070707" fill-rule="evenodd" id="svg_1"/>
 </g>
</svg>